<?xml version="1.0" encoding="UTF-8"?>
<svg width="174px" height="61px" viewBox="0 0 174 61" version="1.1" xmlns="http://www.w3.org/2000/svg" xmlns:xlink="http://www.w3.org/1999/xlink">
    <!-- Generator: Sketch 43.2 (39069) - http://www.bohemiancoding.com/sketch -->
    <title>logo</title>
    <desc>Created with Sketch.</desc>
    <defs>
        <polygon id="path-1" points="34.5967893 51.6908056 34.5967893 0.660069526 0.0481575781 0.660069526 0.0481575781 51.6908056 34.5967893 51.6908056"></polygon>
    </defs>
    <g id="Page-1" stroke="none" stroke-width="1" fill="none" fill-rule="evenodd">
        <g id="HP_Launch_Desktop" transform="translate(-150.000000, -42.000000)">
            <g id="navigation" transform="translate(-1.000000, 26.000000)">
                <g id="global" transform="translate(151.000000, 16.000000)">
                    <g id="logo">
                        <path d="M39.744245,36.3695596 C39.7493156,38.8283611 38.0658963,40.5490131 35.650629,40.5541038 L35.6438683,40.5541038 C33.2877574,40.5541038 31.575605,38.8029077 31.5705345,36.3848317 C31.5688443,35.1936111 31.9795581,34.1211732 32.7283078,33.3626609 C33.4652263,32.616027 34.4979263,32.2036814 35.6354174,32.2019845 L35.6455585,32.2019845 C36.7915006,32.2019845 37.8309613,32.6092394 38.5729503,33.3524796 C39.3250804,34.1059011 39.7425549,35.1766422 39.744245,36.3695596 M34.9441338,28.7250458 L34.9306124,28.7250458 C33.0612733,28.7284395 31.3085566,29.515799 29.9919064,30.9394943 C28.6600445,32.3784616 27.9298867,34.3163162 27.9332671,36.3916193 C27.9366475,38.4652255 28.6752561,40.3996863 30.0104983,41.8352598 C31.3288387,43.2521675 33.0815554,44.0310425 34.945824,44.0310425 L34.9576552,44.0310425 C36.9300953,44.0276487 38.5526681,43.2945899 39.6512851,41.9116201 L39.7543861,41.782656 L39.7577665,43.6136062 L43.3933437,43.6085155 L43.3696812,29.1204224 L39.7307236,29.1255131 L39.734104,30.9564632 L39.631003,30.8274992 C38.5306958,29.4530139 36.9115033,28.7250458 34.9441338,28.7250458" id="Fill-1" fill="#3C5BBB"></path>
                        <path d="M68.6532531,34.6244724 C68.6464923,31.0083882 66.511795,28.675157 63.2142538,28.675157 L63.2024225,28.675157 C61.3313932,28.6785508 59.8507955,29.3997314 58.9195063,30.7623384 L58.8688009,30.8353049 L58.8231661,30.7589446 C57.9983582,29.4048221 56.6495946,28.6887322 54.9205404,28.6887322 L54.9120895,28.6887322 C53.1374005,28.692126 51.7565234,29.3623997 50.9198843,30.6282837 L50.8150932,30.7860949 L50.8117128,29.1061685 L47.1744454,29.112956 L47.2014883,43.6010492 L50.8370655,43.5925647 L50.8235441,35.442376 C50.8201637,33.3416194 51.8613146,32.0842199 53.6089607,32.0808261 L53.6157215,32.0808261 C54.3948944,32.0808261 55.0337825,32.342148 55.4647784,32.8376415 C55.8890136,33.3246505 56.1154977,34.0407404 56.1171879,34.9095508 L56.1307093,43.5823833 L59.7679767,43.5755958 L59.7527651,35.4288008 C59.7510749,34.3444846 60.0012216,33.4994307 60.4947541,32.9173956 C60.9663143,32.3608139 61.6626685,32.0655541 62.5111389,32.0655541 L62.5178996,32.0655541 C63.2970726,32.0655541 63.9359606,32.326876 64.3669565,32.8223694 C64.7911917,33.3110753 65.0159857,34.0254683 65.0176758,34.8925819 L65.0328875,43.5688082 L68.6701549,43.5620206 L68.6532531,34.6244724 Z" id="Fill-3" fill="#3C5BBB"></path>
                        <path d="M96.3340073,32.8149031 L96.3272465,28.7321727 C94.2787484,28.7542324 92.6713872,29.7893386 92.0206679,31.5065967 L91.909116,31.7984627 L91.9057356,29.0325232 L88.2701584,29.0393108 L88.2955111,43.525707 L91.9327785,43.5189194 L91.9192571,36.597283 C91.9158767,35.3738214 92.2978574,34.4116817 93.0516777,33.7380142 C93.8477525,33.0253181 95.073133,32.6825453 96.3340073,32.8149031" id="Fill-5" fill="#3C5BBB"></path>
                        <path d="M101.290629,22.6187676 L101.287249,22.6187676 C100.699066,22.6204645 100.139617,22.8631205 99.712001,23.3009195 C99.2911462,23.731931 99.0494505,24.315663 99.0511407,24.9027888 C99.0528308,25.4933084 99.2877659,26.0549808 99.7170716,26.4842953 C100.144687,26.911913 100.704137,27.1477815 101.292319,27.1477815 L101.2957,27.1477815 C101.897404,27.1460846 102.465304,26.9085192 102.8963,26.4775078 C103.325606,26.0498901 103.562231,25.4865208 103.560541,24.8943043 C103.558851,23.6589645 102.51939,22.6187676 101.290629,22.6187676" id="Fill-7" fill="#3C5BBB"></path>
                        <polygon id="Fill-9" fill="#3C5BBB" points="99.5211797 43.5050049 103.156757 43.4982173 103.131404 29.0118211 99.495827 29.0186087"></polygon>
                        <path d="M132.317095,36.2005489 C132.318785,37.3934663 131.906381,38.4659042 131.155941,39.2227196 C130.415642,39.9710505 129.372801,40.3833961 128.223479,40.385093 L128.213338,40.385093 C127.079227,40.385093 126.049907,39.9761412 125.311299,39.232901 C124.560859,38.4794794 124.146765,37.4070415 124.143384,36.2158209 C124.140004,33.796048 125.848776,32.0380644 128.208267,32.0329737 L128.216718,32.0329737 C130.626915,32.0329737 132.312024,33.7451412 132.317095,36.2005489 M127.516983,28.5577319 L127.503462,28.5577319 C125.634123,28.5611257 123.879716,29.3467882 122.563066,30.7704835 C121.232894,32.2111477 120.501046,34.1473054 120.506117,36.2226085 C120.509497,38.2979116 121.248106,40.2306755 122.583348,41.666249 C123.901688,43.0831567 125.656095,43.8637286 127.520364,43.8637286 L127.530505,43.8637286 C129.502945,43.8603348 131.125518,43.127276 132.224135,41.7443062 L132.327236,41.6136453 L132.330616,43.4445954 L135.966193,43.4395047 L135.940841,28.9514116 L132.303573,28.9565023 L132.306954,30.7874525 L132.203853,30.6584884 C131.103545,29.2840031 129.482663,28.5577319 127.516983,28.5577319" id="Fill-11" fill="#3C5BBB"></path>
                        <path d="M13.4697206,17.4882042 L13.4697206,8.57950327 C13.4697206,6.74515931 12.9237925,5.21116585 11.8927827,4.14042484 C10.9310702,3.14265033 9.55864406,2.59285621 8.02903115,2.59285621 C6.12926881,2.59285621 4.60641662,3.31064297 3.74273463,4.61046487 L3.63625329,4.76997304 L3.63625329,3.00180801 L0.000676072006,3.00180801 L0.000676072006,17.4882042 L3.63625329,17.4882042 L3.63625329,9.66042565 C3.63625329,7.32210376 4.82444984,5.98155637 6.89492036,5.98155637 C8.73383622,5.98155637 9.83245323,7.12865768 9.83245323,9.04614951 L9.83245323,17.4882042 L13.4697206,17.4882042 Z" id="Fill-13" fill="#3C5BBB"></path>
                        <path d="M51.9378798,16.5420154 C52.9976226,17.4956706 54.7925938,17.797718 57.5881515,17.4956706 L57.5881515,14.1884214 C56.1667102,14.2664786 55.198237,14.2732662 54.6894928,13.7913479 C54.4292051,13.5419042 54.3007514,13.1668904 54.3007514,12.6391559 L54.3007514,6.50657582 L57.5881515,6.50657582 L57.5881515,3.00248676 L54.3007514,3.00248676 L54.3007514,0.00067875817 L50.663484,0.0498887255 L50.663484,3.00248676 L48.1332845,3.00248676 L48.1332845,6.50657582 L50.663484,6.50657582 L50.663484,12.6391559 C50.663484,14.5210129 51.067437,15.7614435 51.9378798,16.5420154" id="Fill-15" fill="#3C5BBB"></path>
                        <path d="M108.195015,17.4882042 L108.195015,8.57950327 C108.195015,6.74515931 107.649086,5.21116585 106.618077,4.14042484 C105.656364,3.14265033 104.283938,2.59285621 102.754325,2.59285621 C100.854563,2.59285621 99.3317105,3.31064297 98.4680285,4.61046487 L98.3615472,4.76997304 L98.3615472,3.00180801 L94.72597,3.00180801 L94.72597,17.4882042 L98.3615472,17.4882042 L98.3615472,9.66042565 C98.3615472,7.32210376 99.5497438,5.98155637 101.620214,5.98155637 C103.45913,5.98155637 104.557747,7.12865768 104.557747,9.04614951 L104.557747,17.4882042 L108.195015,17.4882042 Z" id="Fill-17" fill="#3C5BBB"></path>
                        <polygon id="Fill-19" fill="#3C5BBB" points="44.1447977 17.6853835 46.6868285 15.2045224 41.734601 10.2275281 41.7751654 10.1868026 46.6868285 5.19283938 44.2157853 2.79003546 39.2736989 7.75515147 34.3316126 2.79003546 31.8605694 5.19283938 36.8127968 10.2275281 36.7722325 10.2682536 31.8605694 15.2045224 34.4026001 17.6853835 39.2736989 12.7304489"></polygon>
                        <path d="M113.267921,28.5843731 L113.252709,28.5843731 C111.139984,28.5877669 109.203038,29.3751264 107.800188,30.8005185 C106.40579,32.2157293 105.640138,34.151887 105.643519,36.2509467 C105.65197,40.6085741 108.927539,43.8903699 113.266231,43.8903699 L113.279752,43.8903699 C115.654455,43.8852792 117.812815,42.8349009 119.210594,41.0073445 L116.606026,38.3669752 C115.997562,39.5564989 114.746828,40.2641043 113.244258,40.2674981 L113.237498,40.2674981 C112.138881,40.2674981 111.134914,39.863637 110.413207,39.133972 C109.684739,38.3992163 109.284167,37.3725945 109.282476,36.2441591 C109.280786,35.1038453 109.677978,34.0653453 110.403066,33.3254989 C111.123082,32.5873494 112.127049,32.1800945 113.230737,32.1783976 L113.239188,32.1783976 C114.689362,32.1783976 115.956997,32.9097596 116.568842,34.0941926 L119.161579,31.4351574 C117.814505,29.6483266 115.617271,28.5843731 113.267921,28.5843731" id="Fill-21" fill="#3C5BBB"></path>
                        <path d="M67.2138958,14.0696387 C64.8206009,14.0696387 63.0830958,12.3625619 63.0830958,10.0106649 C63.0830958,7.67573676 64.8206009,5.98053824 67.2138958,5.98053824 C69.6071907,5.98053824 71.3430055,7.67573676 71.3430055,10.0106649 C71.3430055,12.3625619 69.6071907,14.0696387 67.2138958,14.0696387 M67.3592512,23.7385489 C71.1097607,23.7385489 74.8940738,21.6055513 74.8940738,16.8457596 L74.8940738,3.00248676 L71.3430055,3.00248676 L71.3430055,4.92846307 L71.2399046,4.78931765 C70.173401,3.35204722 68.5812514,2.59183807 66.6324738,2.59183807 C62.6013945,2.59183807 59.4458284,5.84987729 59.4458284,10.0106649 C59.4458284,14.1714525 62.6013945,17.4294917 66.6324738,17.4294917 C68.5812514,17.4294917 70.173401,16.6692825 71.2399046,15.233709 L71.3430055,15.0945636 L71.3430055,16.8457596 C71.3430055,19.1297809 69.8979016,20.4940848 67.4758737,20.4940848 C66.1304904,20.4940848 64.6279203,20.2548225 63.6476159,18.4815668 L61.085303,21.0795137 C62.4357569,22.8188315 64.6042578,23.7385489 67.3592512,23.7385489" id="Fill-23" fill="#3C5BBB"></path>
                        <path d="M19.4703667,8.9375482 L19.4872685,8.86627859 C19.9267153,6.96236193 21.3346353,5.86616748 23.3476397,5.86277369 L23.3560906,5.86277369 C25.2305002,5.86277369 26.599546,6.98102778 27.0170205,8.85270343 L27.0322321,8.92397304 L19.4703667,8.9375482 Z M23.3560906,2.59285621 L23.3425691,2.59285621 C21.1757584,2.59625 19.2202201,3.38360948 17.8342725,4.80730474 C16.4753677,6.20724346 15.7299984,8.14170425 15.7333787,10.2577328 C15.7367591,12.3907304 16.4990303,14.3251912 17.8799073,15.7013734 C19.3199407,17.1386438 21.312663,17.897156 23.6434212,17.897156 L23.660323,17.897156 C26.026575,17.8920654 28.1595822,16.9468946 29.668913,15.2279395 L27.3043511,12.8302263 C26.6772943,13.6430392 25.5533246,14.58821 23.7127186,14.5966944 L23.6822953,14.5966944 C21.5070337,14.5966944 20.0399574,13.6091013 19.5514954,11.8154828 L19.5312132,11.7425163 L30.524144,11.7221536 C30.6171039,11.1740564 30.6593584,10.7141977 30.6593584,10.2322794 C30.6492174,5.87295507 27.5105531,2.59285621 23.3560906,2.59285621 L23.3560906,2.59285621 Z" id="Fill-25" fill="#3C5BBB"></path>
                        <path d="M81.0975415,9.00712092 L81.1144433,8.9375482 C81.5555802,7.03193464 82.96181,5.93743709 84.9748144,5.9340433 L84.9832653,5.9340433 C86.857675,5.9340433 88.2267208,7.05060049 88.6441952,8.92227614 L88.6594069,8.99354575 L81.0975415,9.00712092 Z M84.9832653,2.66242892 L84.9697439,2.66242892 C82.8029331,2.66751961 80.8473948,3.45318219 79.4614472,4.87687745 C78.1025425,6.27851307 77.3571731,8.21297386 77.3605534,10.3290025 C77.3690043,14.8291691 80.6192205,17.9667288 85.2705959,17.9667288 L85.2874977,17.9667288 C87.6554399,17.9616381 89.7867569,17.0164673 91.2960877,15.2992092 L88.9315258,12.9014959 C88.3044691,13.7126119 87.1804993,14.6577827 85.3398933,14.6662672 L85.3094701,14.6662672 C83.1342084,14.6662672 81.6671321,13.6803709 81.1786701,11.8850556 L81.1583879,11.8120891 L92.1513188,11.7934232 C92.2459689,11.245326 92.2865332,10.7837704 92.2865332,10.3018521 C92.2780823,5.94422467 89.1377278,2.66242892 84.9832653,2.66242892 L84.9832653,2.66242892 Z" id="Fill-27" fill="#3C5BBB"></path>
                        <path d="M74.6554203,34.9923593 L74.6723221,34.9210897 C75.1117689,33.017173 76.5196889,31.9209786 78.5326933,31.9175848 L78.5411442,31.9175848 C80.4155538,31.9175848 81.7845996,33.0358389 82.2020741,34.9075145 L82.2172857,34.9770873 L74.6554203,34.9923593 Z M78.5411442,28.6476673 L78.5276227,28.6476673 C76.360812,28.6510611 74.4052737,29.4384206 73.0193261,30.8621158 C71.6604213,32.2620546 70.915052,34.1965154 70.9184323,36.312544 C70.9218127,38.4455415 71.6840839,40.3783054 73.0649609,41.7544876 C74.5049943,43.1934549 76.4977166,43.9519672 78.8267846,43.9519672 L78.8453766,43.9519672 C81.2133188,43.9468765 83.3446358,43.0000088 84.8539666,41.2827507 L82.4894047,38.8850374 C81.8623479,39.6978503 80.7383782,40.6430211 78.8977722,40.6515056 L78.8673489,40.6515056 C76.6920873,40.6515056 75.225011,39.6639124 74.736549,37.870294 L74.7162668,37.7956306 L85.7091976,37.7769647 C85.8021575,37.2288675 85.844412,36.7690088 85.844412,36.2870905 C85.834271,31.9277662 82.6972968,28.6476673 78.5411442,28.6476673 L78.5411442,28.6476673 Z" id="Fill-29" fill="#3C5BBB"></path>
                        <g id="Group-33" transform="translate(139.424145, 9.327857)">
                            <mask id="mask-2" fill="white">
                                <use xlink:href="#path-1"></use>
                            </mask>
                            <g id="Clip-32"></g>
                            <polygon id="Fill-31" fill="#FF4606" mask="url(#mask-2)" points="34.5971273 26.1915581 34.5819157 26.176286 34.5971273 26.161014 25.4481829 16.975719 9.19710201 0.660069526 0.0481575781 9.84536446 16.2992384 26.161014 16.3144501 26.176286 16.2992384 26.1915581 0.0481575781 42.5055107 9.19710201 51.6908056"></polygon>
                        </g>
                        <polygon id="Fill-34" fill="#C32D09" points="164.872159 44.7048797 148.621078 61.0188323 139.472134 51.8335373 155.723215 35.5195847"></polygon>
                    </g>
                </g>
            </g>
        </g>
    </g>
</svg>